<?xml version="1.0" encoding="iso-8859-1"?>
<!-- Uploaded to: SVG Repo, www.svgrepo.com, Generator: SVG Repo Mixer Tools -->
<!DOCTYPE svg PUBLIC "-//W3C//DTD SVG 1.1//EN" "http://www.w3.org/Graphics/SVG/1.1/DTD/svg11.dtd">
<svg fill="#000000" version="1.1" id="Capa_1" xmlns="http://www.w3.org/2000/svg" xmlns:xlink="http://www.w3.org/1999/xlink" 
	 width="800px" height="800px" viewBox="0 0 89.376 89.376"
	 xml:space="preserve">
<g>
	<g>
		<g>
			<path d="M36.064,36.174v17.248c0,1.121,0.672,2.019,2.016,2.019h10.08h3.361c1.119,0,2.016-0.672,2.016-2.019V39.758
				l-5.824-5.375h-9.407C36.959,33.937,36.064,35.056,36.064,36.174z M47.711,34.832l4.704,4.48h-3.136
				c-1.12,0-1.567-0.673-1.567-1.568L47.711,34.832L47.711,34.832z"/>
			<path d="M44.576,28.111c3.808,0,7.84,1.345,10.976,3.808c1.794,1.568,4.48,1.345,6.05-0.447c1.566-1.792,1.344-4.479-0.449-6.049
				c-4.479-3.807-10.303-6.047-16.353-6.047c-12.544,0-22.624,9.185-24.64,21.057H4.255C2.016,40.433,0,42.225,0,44.689
				c0,2.463,1.792,4.256,4.256,4.256h19.488c2.24,0,4.256-1.793,4.256-4.256C28,35.28,35.392,28.111,44.576,28.111z"/>
			<path d="M85.12,40.433H65.631c-2.238,0-4.256,1.792-4.256,4.256c0,9.406-7.616,16.574-16.576,16.574
				c-3.808,0-7.84-1.345-10.976-3.808c-1.792-1.567-4.479-1.345-6.048,0.446c-1.569,1.793-1.344,4.48,0.448,6.05
				C32.704,67.758,38.528,70,44.576,70c12.544,0,22.625-9.184,24.64-21.057H85.12c2.239,0,4.256-1.791,4.256-4.256
				C89.375,42.448,87.583,40.433,85.12,40.433z"/>
		</g>
	</g>
</g>
</svg>